PathFileType	4	(X/Y/Z)	/Users/itak/Documents/Research/Walk-IL/dataset/trc/00244_00009.trc
DataRate	CameraRate	NumFrames	NumMarkers	Units	OrigDataRate	OrigDataStartFrame	OrigNumFrames
100.000000	100.000000	4	53	mm	100.000000	0	858
Frame#	Time	RPSI			LPSI			L3			STRN			T10			C7			CLAV			RBAK			LBAK			LSHO			LUPA			LAEL			LAOL			LWTS			LWPS			LFRA			LIFD			LHPS			LHTS			RSHO			RUPA			RAEL			RAOL			RWTS			RWPS			RFRA			RIFD			RHTS			RHPS			RBHD			LFHD			RFHD			LBHD			LHIP			RHIP			RASI			LASI			LKNE			LTHI			LANK			LTIP			LTOE			LMT1			LMT5			LHEE			RKNE			RTHI			RANK			RTIP			RTOE			RMT1			RMT5			RHEE			
		X1	Y1	Z1	X2	Y2	Z2	X3	Y3	Z3	X4	Y4	Z4	X5	Y5	Z5	X6	Y6	Z6	X7	Y7	Z7	X8	Y8	Z8	X9	Y9	Z9	X10	Y10	Z10	X11	Y11	Z11	X12	Y12	Z12	X13	Y13	Z13	X14	Y14	Z14	X15	Y15	Z15	X16	Y16	Z16	X17	Y17	Z17	X18	Y18	Z18	X19	Y19	Z19	X20	Y20	Z20	X21	Y21	Z21	X22	Y22	Z22	X23	Y23	Z23	X24	Y24	Z24	X25	Y25	Z25	X26	Y26	Z26	X27	Y27	Z27	X28	Y28	Z28	X29	Y29	Z29	X30	Y30	Z30	X31	Y31	Z31	X32	Y32	Z32	X33	Y33	Z33	X34	Y34	Z34	X35	Y35	Z35	X36	Y36	Z36	X37	Y37	Z37	X38	Y38	Z38	X39	Y39	Z39	X40	Y40	Z40	X41	Y41	Z41	X42	Y42	Z42	X43	Y43	Z43	X44	Y44	Z44	X45	Y45	Z45	X46	Y46	Z46	X47	Y47	Z47	X48	Y48	Z48	X49	Y49	Z49	X50	Y50	Z50	X51	Y51	Z51	X52	Y52	Z52	X53	Y53	Z53	

1	0	375.390380859375	1044.99365234375	757.01708984375	370.4736633300781	1048.972900390625	877.662353515625	381.7651672363281	1126.644409179688	835.6383666992188	140.1870880126953	1318.044189453125	837.0416259765625	390.7903442382812	1253.002075195312	831.4879760742188	335.3955688476562	1516.022216796875	835.9161987304688	167.3606414794922	1435.521362304688	835.2767944335938	409.0112915039062	1375.81396484375	762.1649169921875	355.3299255371094	1478.42529296875	946.7415771484375	266.1856079101562	1482.48193359375	1002.8701171875	292.6306457519531	1362.487060546875	1082.049438476562	270.2183227539062	1151.244750976562	1105.463745117188	343.8270874023438	1134.711181640625	1061.439453125	185.8008880615234	914.5645751953125	1041.472900390625	206.0455627441406	900.0899658203125	1123.589721679688	247.1520538330078	1044.067749023438	1117.619384765625	182.1187744140625	720.4989013671875	1054.503173828125	189.8996276855469	811.9737548828125	1119.740844726562	151.1338043212891	814.5813598632812	1064.029541015625	276.0733642578125	1476.586547851562	666.8470458984375	294.8733825683594	1411.82373046875	599.4192504882812	315.1124877929688	1130.985473632812	560.544677734375	350.0814514160156	1123.938842773438	648.9786987304688	179.8726043701172	918.55126953125	603.7786254882812	230.5756378173828	903.0631103515625	538.0079956054688	289.4172058105469	1063.244140625	547.5761108398438	143.4017181396484	733.3175659179688	603.5338134765625	125.1387481689453	807.3954467773438	581.0774536132812	178.8326873779297	801.8552856445312	530.9298706054688	308.3893432617188	1662.1064453125	786.6343994140625	108.2872772216797	1733.130859375	867.324462890625	114.5127868652344	1729.368896484375	766.9876708984375	257.0761413574219	1678.232055664062	915.7315063476562	264.9690551757812	986.7289428710938	1015.452331542969	275.8285827636719	1008.368347167969	647.81982421875	181.7643737792969	1052.579956054688	683.8070068359375	165.9900970458984	1031.287841796875	964.1484375	231.3593444824219	503.0548706054688	952.0591430664062	230.1494140625	645.3287353515625	988.904052734375	296.8156433105469	34.31380462646484	911.1431884765625	272.6209106445312	279.6454772949219	944.4243774414062	78.86901092529297	44.29204940795898	864.1344604492188	144.5168762207031	41.93795776367188	816.8673706054688	169.1512908935547	35.29250717163086	933.16357421875	354.8086853027344	41.14666748046875	855.7494506835938	203.6506195068359	519.9104614257812	678.4053344726562	206.6586303710938	786.1796875	636.5901489257812	291.3475952148438	38.50621032714844	677.65576171875	197.8449096679688	397.2405700683594	695.9829711914062	94.02020263671875	43.82674407958984	765.0791015625	160.9650268554688	36.07723236083984	795.8206787109375	177.5318603515625	39.6613883972168	677.089599609375	365.1913757324219	32.76663208007812	720.7852783203125	
2	0.01	375.4018249511719	1045.001098632812	756.9463500976562	370.5170593261719	1048.971923828125	877.5867309570312	381.8168334960938	1126.637573242188	835.5602416992188	140.2920379638672	1318.052612304688	837.0887451171875	390.8412780761719	1252.998779296875	831.3983154296875	335.4739379882812	1516.022216796875	835.8594970703125	167.4447631835938	1435.517944335938	835.2991943359375	409.0455932617188	1375.79931640625	762.0794067382812	355.4438171386719	1478.422485351562	946.6668090820312	266.3195190429688	1482.522216796875	1002.887451171875	292.8536071777344	1362.476684570312	1082.001831054688	270.5457458496094	1151.281982421875	1105.485717773438	344.0689086914062	1134.736328125	1061.387573242188	186.2799530029297	914.4419555664062	1041.723754882812	206.5665283203125	900.0528564453125	1123.862915039062	247.5320129394531	1044.07666015625	1117.717407226562	182.8046722412109	720.373779296875	1054.954833984375	190.6544036865234	811.89697265625	1120.177001953125	151.8069763183594	814.4324951171875	1064.365234375	276.0807800292969	1476.573486328125	666.8143920898438	294.86767578125	1411.81591796875	599.385009765625	315.1042785644531	1130.980346679688	560.4891357421875	350.0619201660156	1123.92041015625	648.8919677734375	179.7928009033203	918.5776977539062	603.728759765625	230.4817504882812	903.077392578125	537.9298095703125	289.3443908691406	1063.241943359375	547.5076293945312	143.4097442626953	733.54150390625	603.7664184570312	124.9140853881836	807.5753784179688	580.97412109375	178.5567169189453	801.94140625	530.828125	308.4723510742188	1662.1025390625	786.6019897460938	108.3574981689453	1733.11669921875	867.3453979492188	114.5568466186523	1729.3857421875	767.0151977539062	257.1061096191406	1678.248779296875	915.7133178710938	265.0827941894531	986.7266845703125	1015.398376464844	275.828857421875	1008.368103027344	647.7962036132812	181.7562255859375	1052.585693359375	683.8071899414062	166.0752868652344	1031.29736328125	964.1499633789062	231.34912109375	503.0579833984375	952.0430908203125	230.1668701171875	645.330078125	988.8916015625	296.8157043457031	34.30990982055664	911.1322021484375	272.6040649414062	279.6475219726562	944.4080810546875	78.86419677734375	44.28699493408203	864.142578125	144.5085754394531	41.92313003540039	816.884765625	169.1515197753906	35.29611587524414	933.1692504882812	354.7970886230469	41.14128112792969	855.7443237304688	203.6767730712891	519.9103393554688	678.3965454101562	206.7462158203125	786.2050170898438	636.4234619140625	291.3511352539062	38.50202560424805	677.651611328125	197.8892364501953	397.2428588867188	695.9669189453125	94.02363586425781	43.81517028808594	765.0960083007812	160.9677886962891	36.06978225708008	795.8265991210938	177.5298461914062	39.66232681274414	677.0912475585938	365.1932373046875	32.75051879882812	720.7776489257812	
3	0.02	375.4130859375	1045.0107421875	756.855712890625	370.5722351074219	1048.972534179688	877.4911499023438	381.8803100585938	1126.628662109375	835.4615478515625	140.4241943359375	1318.061401367188	837.15185546875	390.9070739746094	1252.996337890625	831.2861938476562	335.5783386230469	1516.0244140625	835.7835693359375	167.5485229492188	1435.513305664062	835.3299560546875	409.0845336914062	1375.78125	761.9717407226562	355.6003723144531	1478.4189453125	946.5704956054688	266.4912414550781	1482.560180664062	1002.890869140625	293.1387329101562	1362.466918945312	1081.945068359375	270.9421081542969	1151.320678710938	1105.508178710938	344.3726806640625	1134.7685546875	1061.313110351562	186.8678588867188	914.3052978515625	1042.021240234375	207.2241821289062	900.0150756835938	1124.171752929688	248.0135192871094	1044.086669921875	1117.829467773438	183.5938720703125	720.2526245117188	1055.507446289062	191.5316314697266	811.8280639648438	1120.6708984375	152.6015014648438	814.2438354492188	1064.757202148438	276.0830078125	1476.5576171875	666.7728271484375	294.8527526855469	1411.80419921875	599.341064453125	315.08349609375	1130.974487304688	560.4177856445312	350.0328674316406	1123.895263671875	648.7813110351562	179.6879119873047	918.6103515625	603.6761474609375	230.3551330566406	903.0941162109375	537.8380737304688	289.2424926757812	1063.238037109375	547.4228515625	143.3938293457031	733.8071899414062	604.048583984375	124.6558456420898	807.7929077148438	580.8696899414062	178.2214202880859	802.0530395507812	530.7216796875	308.57177734375	1662.101318359375	786.5588989257812	108.4500503540039	1733.101440429688	867.373291015625	114.6150512695312	1729.403930664062	767.054443359375	257.1495666503906	1678.270629882812	915.6898803710938	265.2136840820312	986.723876953125	1015.333374023438	275.8301391601562	1008.37060546875	647.76611328125	181.7440338134766	1052.595703125	683.8091430664062	166.1765899658203	1031.314208984375	964.1542358398438	231.3382568359375	503.0620422363281	952.0231323242188	230.1915130615234	645.3331909179688	988.8753051757812	296.8152465820312	34.3055419921875	911.1189575195312	272.5854187011719	279.6488342285156	944.3853149414062	78.85990142822266	44.28386306762695	864.1513061523438	144.4999084472656	41.90726852416992	816.9031372070312	169.151123046875	35.29831314086914	933.1746215820312	354.78369140625	41.13458251953125	855.7374267578125	203.7165985107422	519.9111938476562	678.3841552734375	206.8421173095703	786.233642578125	636.2421875	291.3561096191406	38.49637603759766	677.6467895507812	197.9521331787109	397.248046875	695.9505004882812	94.02810668945312	43.80462265014648	765.1115112304688	160.9709320068359	36.06138229370117	795.8338012695312	177.5271453857422	39.66442108154297	677.0944213867188	365.1945495605469	32.73263168334961	720.7695922851562	
4	0.03	375.421875	1045.022827148438	756.7489013671875	370.6374816894531	1048.9755859375	877.3796997070312	381.952392578125	1126.618286132812	835.3462524414062	140.5771484375	1318.069580078125	837.2301635742188	390.9860534667969	1252.99560546875	831.1560668945312	335.7073974609375	1516.029174804688	835.689453125	167.6660003662109	1435.5078125	835.368408203125	409.1252746582031	1375.760986328125	761.8457641601562	355.7987976074219	1478.414916992188	946.4551391601562	266.6963500976562	1482.58984375	1002.872253417969	293.4757080078125	1362.459838867188	1081.882690429688	271.38671875	1151.3564453125	1105.527587890625	344.7281188964844	1134.806274414062	1061.2158203125	187.5308532714844	914.1674194335938	1042.343139648438	207.9884643554688	899.9825439453125	1124.488037109375	248.5750427246094	1044.097045898438	1117.945922851562	184.4303436279297	720.1453857421875	1056.117309570312	192.4771423339844	811.779052734375	1121.177856445312	153.4549865722656	814.030029296875	1065.173217773438	276.0765686035156	1476.539672851562	666.7236328125	294.8251953125	1411.788330078125	599.2886962890625	315.044677734375	1130.968017578125	560.333251953125	349.9928283691406	1123.863891601562	648.6515502929688	179.5605926513672	918.6480102539062	603.6278686523438	230.197021484375	903.112060546875	537.7398681640625	289.111083984375	1063.232421875	547.3263549804688	143.3452911376953	734.0979614257812	604.3642578125	124.3829803466797	808.0339965820312	580.781005859375	177.8444519042969	802.1858520507812	530.6241455078125	308.6820373535156	1662.104614257812	786.50537109375	108.5630493164062	1733.087280273438	867.4076538085938	114.686149597168	1729.422119140625	767.1056518554688	257.208740234375	1678.297119140625	915.66162109375	265.3484191894531	986.7207641601562	1015.261535644531	275.8341979980469	1008.377258300781	647.7316284179688	181.7269744873047	1052.610595703125	683.8134765625	166.2889099121094	1031.337646484375	964.1614379882812	231.3294372558594	503.0668029785156	952.0007934570312	230.2238464355469	645.3382568359375	988.8557739257812	296.8140563964844	34.30123901367188	911.1043090820312	272.567626953125	279.6494750976562	944.356689453125	78.8563232421875	44.28273391723633	864.159912109375	144.4918365478516	41.89169692993164	816.9210205078125	169.1497497558594	35.298583984375	933.179443359375	354.7703247070312	41.12730026245117	855.7291870117188	203.7709197998047	519.9135131835938	678.3683471679688	206.9328765869141	786.2623901367188	636.0682983398438	291.3617858886719	38.48907470703125	677.641845703125	198.0345458984375	397.2578125	695.93505859375	94.03339385986328	43.79650497436523	765.1238403320312	160.9742736816406	36.05313873291016	795.8411254882812	177.5238494873047	39.66811752319336	677.0996704101562	365.1949462890625	32.71498489379883	720.7620849609375	
